<svg width="450" height="29" viewBox="0 0 450 29" fill="none" xmlns="http://www.w3.org/2000/svg">
  <path d="M0.75 22L4.53 2.11C5.82 1.81 7.71 1.63 9.51 1.63C11.46 1.63 13.32 2.02 14.58 2.95C15.72 3.73 16.5 4.96 16.5 6.61C16.5 9.58 14.4 11.62 11.82 12.4L11.79 12.49C13.11 13 13.68 14.41 13.86 16.33C14.1 18.85 14.25 21.19 14.58 22H10.98C10.83 21.52 10.62 19.6 10.44 17.17C10.29 14.59 9.36 13.66 7.5 13.66H5.79L4.2 22H0.75ZM7.53 4.6L6.3 10.99H8.28C11.01 10.99 12.84 9.31 12.84 7.12C12.84 5.26 11.37 4.42 9.39 4.42C8.52 4.42 7.95 4.48 7.53 4.6ZM28.5877 22H25.3477C25.3777 21.13 25.4977 19.96 25.6177 18.7H25.5277C24.0877 21.4 22.1677 22.33 20.3077 22.33C17.6977 22.33 15.9877 20.29 15.9877 17.35C15.9877 12.37 19.4677 7.06 26.2777 7.06C27.8677 7.06 29.5777 7.36 30.6877 7.72L29.1877 15.34C28.7677 17.53 28.5277 20.26 28.5877 22ZM26.0077 13.75L26.7877 9.91C26.4277 9.82 25.9777 9.76 25.3477 9.76C22.1077 9.76 19.6177 13.39 19.6177 16.72C19.6177 18.25 20.1877 19.51 21.7177 19.51C23.3377 19.51 25.3177 17.47 26.0077 13.75ZM34.7088 0.699999H38.2188L36.3888 9.55H36.4488C37.6188 7.96 39.3588 7.06 41.2488 7.06C44.3688 7.06 45.6588 9.61 45.6588 12.22C45.6588 16.84 42.4788 22.33 36.2388 22.33C33.1788 22.33 31.3488 21.04 31.3788 18.4C31.3788 17.56 31.4988 16.69 31.6488 15.88L34.7088 0.699999ZM35.4288 14.71L35.1288 16.06C35.0388 16.57 34.9488 17.11 34.9788 17.8C34.9788 19 35.6688 19.66 36.9288 19.66C39.9888 19.66 41.9988 15.73 41.9988 12.88C41.9988 11.26 41.3088 9.91 39.6888 9.91C37.8888 9.91 36.0288 11.77 35.4288 14.71ZM54.8037 7.06C58.7337 7.06 60.8037 9.88 60.8037 13.12C60.8037 18.07 57.3237 22.33 52.3437 22.33C48.6537 22.33 46.3737 19.78 46.3737 16.3C46.3737 11.35 49.8237 7.06 54.8037 7.06ZM54.3837 9.76C51.5937 9.76 49.9737 13.48 49.9737 16.21C49.9737 18.22 51.0537 19.63 52.8237 19.63C55.4337 19.63 57.1737 16.03 57.1737 13.12C57.1737 11.62 56.5137 9.76 54.3837 9.76ZM65.0627 0.699999H68.5727L66.7427 9.55H66.8027C67.9727 7.96 69.7127 7.06 71.6027 7.06C74.7227 7.06 76.0127 9.61 76.0127 12.22C76.0127 16.84 72.8327 22.33 66.5927 22.33C63.5327 22.33 61.7027 21.04 61.7327 18.4C61.7327 17.56 61.8527 16.69 62.0027 15.88L65.0627 0.699999ZM65.7827 14.71L65.4827 16.06C65.3927 16.57 65.3027 17.11 65.3327 17.8C65.3327 19 66.0227 19.66 67.2827 19.66C70.3427 19.66 72.3527 15.73 72.3527 12.88C72.3527 11.26 71.6627 9.91 70.0427 9.91C68.2427 9.91 66.3827 11.77 65.7827 14.71ZM89.0904 22H85.8504C85.8804 21.13 86.0004 19.96 86.1204 18.7H86.0304C84.5904 21.4 82.6704 22.33 80.8104 22.33C78.2004 22.33 76.4904 20.29 76.4904 17.35C76.4904 12.37 79.9704 7.06 86.7804 7.06C88.3704 7.06 90.0804 7.36 91.1904 7.72L89.6904 15.34C89.2704 17.53 89.0304 20.26 89.0904 22ZM86.5104 13.75L87.2904 9.91C86.9304 9.82 86.4804 9.76 85.8504 9.76C82.6104 9.76 80.1204 13.39 80.1204 16.72C80.1204 18.25 80.6904 19.51 82.2204 19.51C83.8404 19.51 85.8204 17.47 86.5104 13.75ZM94.8195 22H91.3395L93.2295 11.92C93.5895 10.18 93.7995 8.65 93.9795 7.39H97.0695L96.7695 10.03H96.8295C98.1795 8.05 100.039 7.06 102.079 7.06C104.149 7.06 105.799 8.32 105.799 11.08C105.799 11.74 105.679 12.76 105.529 13.51L103.909 22H100.429L101.989 13.75C102.079 13.21 102.169 12.58 102.169 12.01C102.169 10.81 101.719 9.91 100.339 9.91C98.7495 9.91 96.7095 11.83 96.0795 15.25L94.8195 22ZM110.114 22H106.634L110.684 0.699999H114.134L111.674 13.72H111.734C112.184 13.18 112.664 12.61 113.054 12.16L117.434 7.39H121.754L115.454 13.42L119.654 22H115.784L112.784 15.31L111.074 16.93L110.114 22Z" fill="#000FAA"/>
  <path d="M130.424 3.128H132.748L129.164 22H126.84L130.424 3.128ZM135.083 22H132.759L134.579 12.396C134.887 10.884 135.055 9.568 135.223 8.448H137.295L136.959 11.108H137.015C138.219 9.204 140.039 8.14 142.027 8.14C143.651 8.14 145.471 9.064 145.471 11.92C145.471 12.508 145.359 13.376 145.219 14.104L143.707 22H141.383L142.867 14.188C142.979 13.656 143.063 13.012 143.063 12.452C143.063 11.08 142.531 10.072 140.935 10.072C139.283 10.072 136.931 12.06 136.315 15.42L135.083 22ZM149.48 22H147.184L150.936 2.12H153.26L150.88 14.58H150.936C151.356 14.104 151.86 13.6 152.196 13.208L156.984 8.448H159.84L153.932 14.02L157.992 22H155.416L152.168 15.308L150.46 16.848L149.48 22ZM166.683 8.14C170.351 8.14 171.975 10.912 171.975 13.796C171.975 17.968 169.007 22.308 164.471 22.308C161.083 22.308 159.179 19.788 159.179 16.736C159.179 12.284 162.287 8.14 166.683 8.14ZM166.431 9.988C163.519 9.988 161.559 13.544 161.587 16.652C161.587 18.864 162.791 20.46 164.779 20.46C167.523 20.46 169.595 16.932 169.595 13.768C169.595 12.2 168.867 9.988 166.431 9.988ZM175.32 22H173.052L174.872 12.396C175.152 10.884 175.348 9.568 175.488 8.448H177.532L177.168 10.996H177.252C178.512 9.12 180.22 8.14 182.012 8.14C184.084 8.14 185.064 9.456 185.176 11.164C186.38 9.204 188.116 8.168 190.16 8.14C191.728 8.14 193.436 9.148 193.436 11.696C193.436 12.34 193.352 13.236 193.212 13.992L191.7 22H189.432L190.888 14.188C191 13.684 191.084 12.984 191.084 12.424C191.084 10.996 190.552 10.072 189.04 10.072C187.36 10.072 185.372 12.032 184.812 15.056L183.496 22H181.256L182.768 14.048C182.88 13.46 182.936 12.928 182.936 12.396C182.936 11.248 182.628 10.072 180.92 10.072C179.212 10.072 177.112 12.312 176.58 15.196L175.32 22ZM204.541 19.48L204.877 21.216C203.869 21.804 202.217 22.28 200.397 22.28C196.813 22.28 195.245 19.844 195.245 16.848C195.245 12.76 198.269 8.14 202.637 8.14C205.213 8.14 206.613 9.68 206.613 11.612C206.613 15.168 202.609 16.12 197.597 16.036C197.485 16.624 197.569 17.884 197.877 18.612C198.409 19.816 199.501 20.432 200.901 20.432C202.497 20.432 203.701 19.928 204.541 19.48ZM204.373 11.696C204.373 10.576 203.533 9.96 202.301 9.96C200.089 9.96 198.437 12.116 197.877 14.244C201.517 14.272 204.373 13.796 204.373 11.696ZM209.557 22H207.233L209.053 12.396C209.361 10.884 209.529 9.568 209.697 8.448H211.769L211.433 11.108H211.489C212.693 9.204 214.513 8.14 216.501 8.14C218.125 8.14 219.945 9.064 219.945 11.92C219.945 12.508 219.833 13.376 219.693 14.104L218.181 22H215.857L217.341 14.188C217.453 13.656 217.537 13.012 217.537 12.452C217.537 11.08 217.005 10.072 215.409 10.072C213.757 10.072 211.405 12.06 210.789 15.42L209.557 22ZM221.098 21.356L221.742 19.648C222.386 20.04 223.562 20.488 224.654 20.488C226.222 20.488 227.23 19.48 227.23 18.276C227.23 17.212 226.754 16.568 225.354 15.784C223.786 14.916 222.918 13.712 222.918 12.34C222.918 9.96 224.962 8.14 227.818 8.14C229.05 8.14 230.142 8.476 230.646 8.812L230.002 10.576C229.526 10.296 228.658 9.96 227.65 9.96C226.25 9.96 225.242 10.828 225.242 12.004C225.242 12.984 225.886 13.6 227.09 14.272C228.602 15.14 229.638 16.316 229.638 17.828C229.638 20.684 227.314 22.28 224.458 22.28C223.002 22.28 221.714 21.832 221.098 21.356ZM232.159 8.448H234.539L235.715 16.176C235.911 17.716 236.079 18.752 236.135 19.508H236.219C236.499 18.78 236.863 17.884 237.647 16.344L241.791 8.448H244.339L236.807 22H234.511L232.159 8.448ZM252.914 19.48L253.25 21.216C252.242 21.804 250.59 22.28 248.77 22.28C245.186 22.28 243.618 19.844 243.618 16.848C243.618 12.76 246.642 8.14 251.01 8.14C253.586 8.14 254.986 9.68 254.986 11.612C254.986 15.168 250.982 16.12 245.97 16.036C245.858 16.624 245.942 17.884 246.25 18.612C246.782 19.816 247.874 20.432 249.274 20.432C250.87 20.432 252.074 19.928 252.914 19.48ZM252.746 11.696C252.746 10.576 251.906 9.96 250.674 9.96C248.462 9.96 246.81 12.116 246.25 14.244C249.89 14.272 252.746 13.796 252.746 11.696ZM257.93 22H255.606L257.258 13.264C257.594 11.5 257.818 9.708 257.958 8.448H260.002C259.89 9.4 259.778 10.352 259.638 11.388H259.722C260.59 9.54 262.046 8.14 263.866 8.14C264.062 8.14 264.342 8.168 264.51 8.196L264.062 10.492C263.922 10.464 263.698 10.436 263.446 10.436C261.43 10.436 259.638 12.872 259.05 16.036L257.93 22ZM266.284 22H263.988L267.74 2.12H270.064L267.684 14.58H267.74C268.16 14.104 268.664 13.6 269 13.208L273.788 8.448H276.644L270.736 14.02L274.796 22H272.22L268.972 15.308L267.264 16.848L266.284 22ZM278.685 22H276.389L280.169 2.12H282.493L278.685 22ZM293.343 22H291.187C291.187 21.188 291.327 19.9 291.495 18.5H291.439C289.955 21.3 288.107 22.308 286.175 22.308C283.795 22.308 282.283 20.404 282.283 17.828C282.283 13.124 285.755 8.14 291.663 8.14C292.951 8.14 294.379 8.364 295.303 8.672L293.931 15.728C293.483 18.08 293.287 20.488 293.343 22ZM291.915 14.272L292.699 10.184C292.363 10.1 291.859 9.988 291.075 9.988C287.575 9.988 284.719 13.656 284.691 17.408C284.691 18.92 285.223 20.404 287.015 20.404C288.947 20.404 291.243 17.884 291.915 14.272ZM298.592 22H296.268L297.92 13.264C298.256 11.5 298.48 9.708 298.62 8.448H300.664C300.552 9.4 300.44 10.352 300.3 11.388H300.384C301.252 9.54 302.708 8.14 304.528 8.14C304.724 8.14 305.004 8.168 305.172 8.196L304.724 10.492C304.584 10.464 304.36 10.436 304.108 10.436C302.092 10.436 300.3 12.872 299.712 16.036L298.592 22ZM306.946 22H304.622L307.226 8.448H309.55L306.946 22ZM308.99 6.124C308.178 6.124 307.646 5.508 307.646 4.668C307.646 3.772 308.346 3.1 309.186 3.1C310.026 3.1 310.558 3.716 310.558 4.556C310.53 5.48 309.886 6.124 308.99 6.124ZM312.785 22H310.461L312.281 12.396C312.589 10.884 312.757 9.568 312.925 8.448H314.997L314.661 11.108H314.717C315.921 9.204 317.741 8.14 319.729 8.14C321.353 8.14 323.173 9.064 323.173 11.92C323.173 12.508 323.061 13.376 322.921 14.104L321.409 22H319.085L320.569 14.188C320.681 13.656 320.765 13.012 320.765 12.452C320.765 11.08 320.233 10.072 318.637 10.072C316.985 10.072 314.633 12.06 314.017 15.42L312.785 22ZM324.326 26.9L324.998 25.08C325.81 25.584 327.154 25.976 328.582 25.976C330.85 25.976 332.642 24.8 333.454 21.132L333.902 19.116H333.818C332.642 21.048 330.99 22 329.114 22C326.398 22 324.998 19.704 324.998 17.296C324.97 12.704 328.358 8.14 333.594 8.14C335.162 8.14 336.87 8.588 337.934 9.092L335.862 20.292C335.302 23.148 334.546 25.136 333.118 26.34C331.774 27.516 329.954 27.852 328.386 27.852C326.734 27.852 325.194 27.46 324.326 26.9ZM334.518 14.972L335.386 10.464C334.966 10.268 334.126 10.016 333.146 10.016C329.758 10.016 327.434 13.544 327.406 16.904C327.406 18.388 327.938 20.152 330.01 20.152C331.998 20.152 334.014 17.632 334.518 14.972ZM353.951 16.036H347.427L344.431 22H341.967L351.739 3.128H354.483L357.087 22H354.707L353.951 16.036ZM348.267 14.188H353.755L353.027 8.728C352.915 7.748 352.775 6.376 352.691 5.256H352.635C352.131 6.376 351.655 7.552 351.095 8.7L348.267 14.188ZM360.145 27.544H357.849L360.565 13.264C360.845 11.64 361.125 9.82 361.321 8.448H363.449L363.057 10.996H363.113C364.345 9.232 366.137 8.14 367.985 8.14C370.925 8.14 372.157 10.548 372.157 13.04C372.157 17.8 368.741 22.308 364.233 22.308C362.777 22.308 361.825 22 361.293 21.692H361.237L360.145 27.544ZM362.329 15.952L361.657 19.732C362.245 20.208 363.141 20.488 364.233 20.488C367.229 20.488 369.749 16.764 369.749 13.208C369.749 11.78 369.105 10.072 367.145 10.072C365.325 10.072 363.029 12.172 362.329 15.952ZM374.296 27.544H372L374.716 13.264C374.996 11.64 375.276 9.82 375.472 8.448H377.6L377.208 10.996H377.264C378.496 9.232 380.288 8.14 382.136 8.14C385.076 8.14 386.308 10.548 386.308 13.04C386.308 17.8 382.892 22.308 378.384 22.308C376.928 22.308 375.976 22 375.444 21.692H375.388L374.296 27.544ZM376.48 15.952L375.808 19.732C376.396 20.208 377.292 20.488 378.384 20.488C381.38 20.488 383.9 16.764 383.9 13.208C383.9 11.78 383.256 10.072 381.296 10.072C379.476 10.072 377.18 12.172 376.48 15.952ZM389.679 22H387.383L391.163 2.12H393.487L389.679 22ZM395.517 22H393.193L395.797 8.448H398.121L395.517 22ZM397.561 6.124C396.749 6.124 396.217 5.508 396.217 4.668C396.217 3.772 396.917 3.1 397.757 3.1C398.597 3.1 399.129 3.716 399.129 4.556C399.101 5.48 398.457 6.124 397.561 6.124ZM408.131 19.62L408.355 21.468C407.655 21.804 406.255 22.28 404.435 22.28C400.935 22.28 399.227 19.928 399.227 17.044C399.227 12.424 402.643 8.168 407.515 8.168C408.775 8.168 409.923 8.532 410.343 8.756L409.671 10.604C409.139 10.352 408.383 10.1 407.375 10.1C403.847 10.1 401.635 13.572 401.635 16.764C401.635 18.948 402.783 20.376 404.995 20.376C406.367 20.376 407.431 19.956 408.131 19.62ZM421.045 22H418.889C418.889 21.188 419.029 19.9 419.197 18.5H419.141C417.657 21.3 415.809 22.308 413.877 22.308C411.497 22.308 409.985 20.404 409.985 17.828C409.985 13.124 413.457 8.14 419.365 8.14C420.653 8.14 422.081 8.364 423.005 8.672L421.633 15.728C421.185 18.08 420.989 20.488 421.045 22ZM419.617 14.272L420.401 10.184C420.065 10.1 419.561 9.988 418.777 9.988C415.277 9.988 412.421 13.656 412.393 17.408C412.393 18.92 412.925 20.404 414.717 20.404C416.649 20.404 418.945 17.884 419.617 14.272ZM427.638 5.396L430.046 4.808L429.346 8.448H432.594L432.23 10.268H428.982L427.722 16.848C427.582 17.604 427.47 18.304 427.47 19.032C427.47 19.844 427.862 20.32 428.758 20.32C429.15 20.32 429.542 20.292 429.85 20.236L429.738 22.056C429.318 22.224 428.618 22.308 427.946 22.308C425.874 22.308 425.09 21.048 425.09 19.676C425.09 18.892 425.174 18.108 425.37 17.128L426.714 10.268H424.754L425.118 8.448H427.05L427.638 5.396ZM434.511 22H432.187L434.791 8.448H437.115L434.511 22ZM436.555 6.124C435.743 6.124 435.211 5.508 435.211 4.668C435.211 3.772 435.911 3.1 436.751 3.1C437.591 3.1 438.123 3.716 438.123 4.556C438.095 5.48 437.451 6.124 436.555 6.124ZM447.462 19.48L447.798 21.216C446.79 21.804 445.138 22.28 443.318 22.28C439.734 22.28 438.166 19.844 438.166 16.848C438.166 12.76 441.19 8.14 445.558 8.14C448.134 8.14 449.534 9.68 449.534 11.612C449.534 15.168 445.53 16.12 440.518 16.036C440.406 16.624 440.49 17.884 440.798 18.612C441.33 19.816 442.422 20.432 443.822 20.432C445.418 20.432 446.622 19.928 447.462 19.48ZM447.294 11.696C447.294 10.576 446.454 9.96 445.222 9.96C443.01 9.96 441.358 12.116 440.798 14.244C444.438 14.272 447.294 13.796 447.294 11.696Z" fill="#000FAA"/>
</svg>
